<svg width="210" height="30" viewBox="0 0 210 30" fill="none" xmlns="http://www.w3.org/2000/svg">
<g clip-path="url(#clip0_29_223)">
<path d="M31.4783 26.3211C30.0964 25.59 28.9522 24.4791 28.1807 23.1194C27.3895 21.6216 26.9772 19.9528 26.98 18.2589C26.9828 16.565 27.4005 14.8976 28.1967 13.4024C28.977 12.0343 30.1323 10.9178 31.5263 10.1848C32.9972 9.4478 34.6197 9.06406 36.2648 9.06406C37.91 9.06406 39.5324 9.4478 41.0033 10.1848C42.3973 10.918 43.5526 12.0345 44.333 13.4026C45.1648 14.8815 45.5849 16.5564 45.5496 18.2529C45.5849 19.9514 45.1589 21.6276 44.3172 23.1033C43.5247 24.4733 42.3586 25.5894 40.9552 26.3211C39.4867 27.08 37.8536 27.4649 36.2007 27.4417C34.5578 27.4676 32.9344 27.0824 31.4783 26.3211ZM38.8741 21.5506C39.6105 20.7821 39.9787 19.6829 39.9788 18.2529C39.9788 16.8232 39.6212 15.7239 38.9061 14.9551C38.567 14.5927 38.1573 14.3035 37.7023 14.1053C37.2473 13.9071 36.7565 13.8041 36.2602 13.8026C35.7639 13.8011 35.2725 13.9011 34.8163 14.0966C34.3601 14.292 33.9487 14.5788 33.6074 14.9391C32.903 15.697 32.5509 16.8016 32.5509 18.2529C32.5509 19.6831 32.8978 20.7823 33.5914 21.5506C33.9155 21.922 34.3171 22.2177 34.768 22.4169C35.2189 22.6161 35.708 22.7138 36.2008 22.7032C36.7024 22.7099 37.1998 22.6106 37.6604 22.412C38.1211 22.2134 38.5346 21.9199 38.8741 21.5506Z" fill="#121321"/>
<path d="M51.1604 26.3211C49.7785 25.59 48.6344 24.4791 47.8628 23.1194C47.0716 21.6216 46.6593 19.9528 46.6621 18.2589C46.6649 16.565 47.0827 14.8976 47.8789 13.4024C48.6591 12.0343 49.8144 10.9178 51.2085 10.1848C52.6793 9.4478 54.3018 9.06406 55.947 9.06406C57.5921 9.06406 59.2146 9.4478 60.6855 10.1848C62.0794 10.918 63.2347 12.0345 64.0151 13.4026C64.847 14.8815 65.2673 16.5564 65.2321 18.2529C65.2674 19.9515 64.8412 21.6279 63.9989 23.1034C63.2067 24.4734 62.0408 25.5896 60.6375 26.3212C59.169 27.0802 57.5359 27.4651 55.883 27.4419C54.24 27.4677 52.6166 27.0825 51.1604 26.3211ZM58.5563 21.5506C59.2927 20.7821 59.6609 19.6829 59.6609 18.2529C59.6609 16.8232 59.3034 15.7239 58.5883 14.9551C58.2492 14.5927 57.8395 14.3035 57.3845 14.1053C56.9295 13.9071 56.4387 13.8041 55.9424 13.8026C55.4461 13.8011 54.9547 13.9011 54.4985 14.0966C54.0423 14.292 53.6309 14.5788 53.2896 14.9391C52.5852 15.697 52.233 16.8016 52.2331 18.2529C52.2331 19.6831 52.5799 20.7823 53.2736 21.5506C53.5976 21.922 53.9993 22.2177 54.4502 22.4169C54.901 22.6161 55.3901 22.7138 55.8829 22.7032C56.3845 22.7099 56.8819 22.6106 57.3425 22.412C57.8032 22.2134 58.2168 21.9199 58.5563 21.5506Z" fill="#121321"/>
<path d="M77.262 27.1854L71.819 19.6936V27.1854H66.3442V3.49332H71.819V16.5879L77.23 9.32014H83.9855L76.5575 18.2847L84.0495 27.1853L77.262 27.1854Z" fill="#121321"/>
<path d="M8.36394 28.7026C5.79166 28.7026 2.47251 27.0617 1.5641 22.8406C0.880784 19.6648 1.75702 16.091 3.97566 12.8608C2.72465 12.2681 1.37873 11.9012 0 11.777L0.398333 7.17636C2.77779 7.39506 5.08181 8.1258 7.15236 9.31847C9.75043 7.07788 12.7922 5.72574 15.4559 5.72574C18.4648 5.72574 20.8662 6.62593 22.5932 8.40111C26.1415 12.0485 25.9651 18.4645 25.7942 24.6692C25.7742 25.3981 25.754 26.1268 25.7401 26.8496L21.123 26.7602C21.1373 26.025 21.1578 25.2836 21.1781 24.5422C21.3224 19.2958 21.4717 13.8709 19.2833 11.6213C18.4469 10.7615 17.1949 10.3437 15.4559 10.3437C14.1249 10.3437 12.4804 11.0455 10.9361 12.1976C13.5383 14.7786 15.0647 17.8588 15.1382 20.7004C15.2594 25.3876 12.3347 28.0506 9.38238 28.6105C9.04652 28.6729 8.70555 28.7037 8.36394 28.7026ZM7.74423 15.5292C6.2712 17.6897 5.66695 19.9553 6.07878 21.8691C6.58913 24.241 8.50199 24.0763 8.52192 24.0734C8.86815 24.0076 10.5922 23.5421 10.5218 20.8195C10.4815 19.2599 9.45379 17.257 7.74423 15.5292Z" fill="#121321"/>
<path d="M140.684 9.98682C141.639 9.42809 142.727 9.13969 143.833 9.15251V14.8511H142.353C141.01 14.8511 140.002 15.1396 139.331 15.7167C138.659 16.2944 138.323 17.3072 138.323 18.7549V26.9092H132.939V9.34145H138.323V12.2693C138.921 11.3346 139.73 10.5529 140.684 9.98682Z" fill="#121321"/>
<path d="M146.488 13.3398C147.104 12.0502 148.07 10.9595 149.275 10.1916C150.454 9.45578 151.82 9.07341 153.21 9.08976C154.343 9.06469 155.463 9.32444 156.469 9.84515C157.352 10.3019 158.096 10.9867 158.625 11.8285V9.34147H164.009V26.9092H158.625V24.422C158.079 25.2604 157.325 25.9437 156.437 26.4056C155.432 26.9264 154.311 27.1861 153.179 27.1611C151.797 27.1743 150.441 26.786 149.275 26.0434C148.068 25.2636 147.103 24.1624 146.488 22.8637C145.814 21.3668 145.465 19.7436 145.465 18.1018C145.465 16.4599 145.814 14.8367 146.488 13.3398ZM157.508 14.9456C157.156 14.5786 156.734 14.2863 156.266 14.0861C155.799 13.886 155.296 13.782 154.788 13.7806C154.279 13.7791 153.776 13.88 153.307 14.0775C152.839 14.2749 152.415 14.5647 152.061 14.9296C151.316 15.6963 150.943 16.7511 150.943 18.0939C150.943 19.4372 151.316 20.5024 152.061 21.2895C152.41 21.6609 152.832 21.9572 153.299 22.1602C153.767 22.3632 154.271 22.4687 154.781 22.4701C155.291 22.4716 155.796 22.369 156.264 22.1687C156.733 21.9684 157.156 21.6746 157.508 21.3051C158.253 20.529 158.625 19.469 158.625 18.1252C158.625 16.7825 158.253 15.7226 157.508 14.9456Z" fill="#121321"/>
<path d="M166.665 13.3397C167.281 12.0501 168.246 10.9593 169.451 10.1915C170.631 9.45568 171.997 9.07332 173.387 9.0897C174.484 9.07668 175.568 9.32481 176.551 9.81362C177.459 10.2562 178.235 10.9293 178.802 11.7657V3.61127H184.186V26.9092H178.802V24.3906C178.281 25.2466 177.535 25.9434 176.645 26.4055C175.639 26.9263 174.519 27.186 173.387 27.161C171.994 27.1772 170.627 26.7889 169.451 26.0433C168.244 25.2636 167.279 24.1623 166.665 22.8636C165.99 21.3666 165.642 19.7435 165.642 18.1017C165.642 16.4598 165.99 14.8367 166.665 13.3397ZM177.684 14.9455C177.332 14.5786 176.91 14.2863 176.443 14.0861C175.976 13.886 175.473 13.782 174.964 13.7806C174.456 13.7791 173.952 13.88 173.484 14.0775C173.015 14.2749 172.592 14.5647 172.238 14.9296C171.492 15.6963 171.12 16.751 171.12 18.0939C171.12 19.4372 171.493 20.5024 172.238 21.2894C172.587 21.6609 173.008 21.9571 173.476 22.1601C173.944 22.3631 174.448 22.4685 174.958 22.47C175.467 22.4715 175.972 22.3689 176.441 22.1686C176.91 21.9683 177.333 21.6745 177.684 21.3051C178.429 20.5289 178.802 19.4689 178.802 18.1252C178.802 16.7824 178.429 15.7225 177.684 14.9455Z" fill="#121321"/>
<path d="M191.202 3.61127V26.9092H185.818V3.61127H191.202Z" fill="#121321"/>
<path d="M210.065 19.2993H198.093C198.175 20.3717 198.521 21.1915 199.13 21.7586C199.736 22.3255 200.542 22.631 201.372 22.6092C202.692 22.6092 203.61 22.0524 204.125 20.9389H209.756C209.471 22.064 208.937 23.1107 208.193 24.0013C207.426 24.9201 206.457 25.6504 205.363 26.1358C204.165 26.6646 202.867 26.9284 201.558 26.9092C199.985 26.938 198.43 26.5654 197.041 25.8265C195.733 25.1163 194.658 24.0417 193.948 22.733C193.18 21.287 192.796 19.6677 192.834 18.0306C192.796 16.3956 193.174 14.7777 193.932 13.3286C194.634 12.0188 195.704 10.9433 197.01 10.235C198.405 9.5285 199.945 9.15777 201.508 9.15243C203.071 9.14709 204.613 9.50727 206.012 10.2042C207.296 10.89 208.354 11.932 209.059 13.2049C209.815 14.5993 210.194 16.1668 210.158 17.7524C210.156 18.2694 210.125 18.7858 210.065 19.2993ZM204.744 16.3604C204.762 15.9529 204.687 15.5468 204.527 15.1719C204.366 14.7971 204.123 14.4632 203.816 14.1949C203.169 13.6485 202.342 13.3618 201.496 13.3904C200.679 13.3662 199.881 13.6412 199.253 14.1638C198.618 14.7308 198.215 15.5136 198.124 16.3604H204.744Z" fill="#121321"/>
<path d="M114.655 29.4926L110.457 27.5956C110.957 26.4899 111.557 25.1626 112.27 23.7709C112.03 23.5433 111.803 23.3081 111.59 23.0655C107.856 18.8133 108.196 11.5201 112.331 7.13987C116.774 2.43339 124.598 2.15236 130.53 6.48593L127.813 10.2056C123.184 6.82435 118.107 7.73152 115.681 10.3022C113.283 12.8413 112.893 17.053 114.725 19.615C116.918 16.4635 119.786 13.7964 123.489 13.5505C126.707 13.3363 129.476 14.9361 130.711 17.7256C131.283 18.9784 131.451 20.378 131.193 21.7308C130.935 23.0836 130.263 24.3228 129.27 25.2772C127.518 26.9671 124.916 27.8297 121.945 27.7061C119.944 27.6117 117.98 27.141 116.154 26.3187C115.541 27.5323 115.034 28.6549 114.655 29.4926ZM118.49 22.3027C119.653 22.7696 120.885 23.0403 122.136 23.1036C123.837 23.1744 125.236 22.7687 126.073 21.9615C126.383 21.6605 126.591 21.2699 126.667 20.8445C126.743 20.4192 126.685 19.9806 126.499 19.5905C126.289 19.1162 125.605 18.0274 123.795 18.1469C121.836 18.277 120.02 20.0839 118.49 22.3027Z" fill="#121321"/>
<path d="M100.395 26.9594L99.0593 25.6652C97.6867 26.6934 96.0076 27.2289 94.2932 27.1854C93.3002 27.2077 92.3136 27.0223 91.3965 26.641C90.6277 26.3215 89.9677 25.7864 89.4962 25.1002C89.043 24.4084 88.8102 23.5954 88.8287 22.7686C88.8194 21.8955 89.0736 21.04 89.558 20.3136C90.1097 19.526 90.8663 18.9044 91.7459 18.516C91.4258 18.1388 91.169 17.7121 90.9858 17.2525C90.8313 16.8281 90.7547 16.3792 90.7597 15.9275C90.753 15.2658 90.9386 14.6164 91.2939 14.0581C91.673 13.4767 92.2113 13.0167 92.8447 12.733C93.6035 12.3945 94.4282 12.2296 95.2587 12.2503C96.0896 12.2252 96.9142 12.4014 97.6622 12.7639C98.2791 13.0683 98.7933 13.5468 99.1413 14.1402C99.4697 14.714 99.6266 15.37 99.5933 16.0303H96.286C96.3026 15.8766 96.2864 15.7212 96.2386 15.5743C96.1908 15.4273 96.1124 15.2922 96.0085 15.1777C95.9038 15.0769 95.7797 14.9985 95.6437 14.9473C95.5077 14.8961 95.3627 14.8731 95.2176 14.8798C94.9174 14.8698 94.6243 14.9724 94.3959 15.1674C94.2894 15.2583 94.2046 15.3719 94.1477 15.4999C94.0909 15.6279 94.0634 15.767 94.0673 15.907C94.077 16.2277 94.1728 16.5399 94.3445 16.8109C94.5928 17.2062 94.8857 17.5715 95.2176 17.8998L98.7307 21.3305C98.7579 21.2621 98.7955 21.18 98.8436 21.0839C98.8914 20.9883 98.9427 20.8788 98.9977 20.7552L99.7578 19.461H103.271L102.285 21.2483C101.92 22.047 101.494 22.8163 101.011 23.5492L104.483 26.9595L100.395 26.9594ZM96.9022 23.5698L93.6977 20.4676C92.7114 20.9745 92.2184 21.6593 92.2185 22.522C92.2148 22.7711 92.2674 23.0177 92.3723 23.2436C92.4773 23.4695 92.6319 23.6687 92.8246 23.8265C93.2864 24.1955 93.8676 24.3819 94.4578 24.3504C95.3358 24.363 96.194 24.089 96.9022 23.5698Z" fill="#121321"/>
</g>
<defs>
<clipPath id="clip0_29_223">
<rect width="210" height="28.9655" fill="white" transform="translate(0 0.517242)"/>
</clipPath>
</defs>
</svg>
